<?xml version="1.0" standalone="no"?>
<!DOCTYPE svg PUBLIC "-//W3C//DTD SVG 20010904//EN"
 "http://www.w3.org/TR/2001/REC-SVG-20010904/DTD/svg10.dtd">
<svg version="1.0" xmlns="http://www.w3.org/2000/svg"
 width="50.000000pt" height="50.000000pt" viewBox="0 0 50.000000 50.000000"
 preserveAspectRatio="xMidYMid meet">

<g transform="translate(0.000000,50.000000) scale(0.100000,-0.100000)"
fill="#000000" stroke="none">
<path d="M204 410 c-46 -14 -100 -79 -109 -129 -5 -33 -2 -51 17 -89 31 -63
76 -92 143 -92 122 0 198 116 146 224 -35 72 -120 109 -197 86z m128 -27 c67
-40 94 -144 51 -201 -70 -95 -194 -95 -254 0 -30 49 -22 128 17 169 16 17 38
35 49 39 35 15 106 11 137 -7z"/>
<path d="M191 372 c-97 -52 -90 -185 11 -238 83 -43 188 24 188 121 0 104
-106 167 -199 117z m127 -15 c29 -14 59 -67 40 -68 -10 0 -10 -2 0 -6 6 -2 12
-9 12 -14 0 -6 -4 -7 -10 -4 -6 4 -10 -8 -10 -28 0 -37 -11 -50 -50 -62 -14
-4 -30 -15 -37 -24 -11 -14 -12 -14 -13 4 0 11 -7 29 -15 39 -22 29 -18 60 10
102 15 22 22 41 17 46 -13 13 -96 -36 -100 -58 -2 -11 -9 -23 -14 -29 -21 -20
2 59 24 82 38 40 91 48 146 20z m-78 -45 c0 -4 -9 -13 -19 -19 -11 -7 -21 -23
-24 -35 -4 -20 -4 -21 -6 -3 0 12 7 31 17 43 17 22 32 29 32 14z"/>
<path d="M293 300 c-31 -12 -29 -22 2 -14 24 6 25 4 25 -35 0 -36 -4 -43 -26
-52 -15 -5 -24 -12 -21 -15 3 -3 18 0 34 8 25 12 28 18 28 62 0 53 -7 60 -42
46z"/>
</g>
</svg>
